<?xml version="1.0" encoding="utf-8"?>
<!-- Generator: Adobe Illustrator 16.0.3, SVG Export Plug-In . SVG Version: 6.00 Build 0)  -->
<!DOCTYPE svg PUBLIC "-//W3C//DTD SVG 1.1//EN" "http://www.w3.org/Graphics/SVG/1.1/DTD/svg11.dtd">
<svg version="1.1" id="Layer_1" xmlns="http://www.w3.org/2000/svg" xmlns:xlink="http://www.w3.org/1999/xlink" x="0px" y="0px"
	 width="500px" height="500px" viewBox="0 0 500 500" enable-background="new 0 0 500 500" xml:space="preserve">
<g>
	<path d="M275.857,201.422c-0.037-0.295-0.098-0.589-0.143-0.882c-0.474-2.983-1.434-5.813-2.761-8.409
		c-0.043-0.083-0.099-0.167-0.142-0.25c-0.047-0.088-0.099-0.178-0.146-0.266c-0.051-0.094-0.104-0.188-0.157-0.283
		c-0.045-0.084-0.097-0.168-0.143-0.252c-0.059-0.103-0.116-0.204-0.176-0.306c-0.064-0.112-0.131-0.221-0.196-0.33
		c-0.009-0.015-0.017-0.029-0.024-0.043c-0.063-0.102-0.125-0.203-0.188-0.304c-0.07-0.111-0.141-0.224-0.211-0.333
		c-0.07-0.11-0.143-0.221-0.215-0.331c-0.146-0.219-0.293-0.435-0.442-0.651c-0.086-0.123-0.174-0.245-0.26-0.366
		c-0.177-0.243-0.356-0.482-0.54-0.719c-0.09-0.119-0.184-0.236-0.276-0.354c-0.504-0.479-1.026-0.937-1.563-1.377
		c-4.424-3.179-8.769-4.604-15.644-5.426c-1.333-0.193-2.676-0.154-4.062-0.154c-1.357,0-2.692,0.096-3.998,0.281
		c-0.101,0.015-0.202,0.028-0.302,0.045c-0.201,0.03-0.402,0.062-0.602,0.097c-0.272,0.048-0.542,0.1-0.81,0.154
		c-0.269,0.056-0.537,0.115-0.803,0.178c-0.058,0.017-0.117,0.036-0.174,0.056c-0.044,0.015-0.09,0.03-0.135,0.045
		c-0.102,0.035-0.202,0.072-0.302,0.111c-0.024,0.011-0.05,0.02-0.075,0.03c-0.013,0.005-0.027,0.011-0.041,0.018
		c-0.015,0.006-0.029,0.012-0.044,0.018c-0.085,0.035-0.17,0.073-0.254,0.11c-0.05,0.021-0.097,0.046-0.146,0.068
		c-0.037,0.018-0.072,0.036-0.108,0.053c-0.092,0.046-0.185,0.093-0.275,0.142c-0.029,0.016-0.057,0.031-0.085,0.047
		c-0.075,0.041-0.15,0.084-0.226,0.128c-0.144,0.085-0.284,0.175-0.421,0.267c-0.043,0.03-0.089,0.061-0.132,0.091
		c-0.044,0.03-0.087,0.062-0.13,0.092c-0.043,0.032-0.085,0.064-0.128,0.097c-0.213,0.16-0.418,0.331-0.615,0.51
		c-0.039,0.035-0.079,0.071-0.117,0.108c-0.037,0.036-0.073,0.07-0.109,0.105c-0.006,0.005-0.011,0.01-0.017,0.017
		c-0.033,0.031-0.065,0.064-0.097,0.096c-0.006,0.005-0.011,0.01-0.016,0.015c-0.034,0.035-0.067,0.071-0.1,0.106
		c-0.074,0.076-0.146,0.156-0.217,0.235c-0.035,0.04-0.069,0.08-0.104,0.121c-0.034,0.04-0.069,0.082-0.103,0.122
		c-0.032,0.041-0.065,0.082-0.099,0.123c0,0.001-0.001,0.004-0.003,0.004c-0.032,0.04-0.062,0.081-0.094,0.122
		c-0.098,0.128-0.192,0.259-0.282,0.394c-0.026,0.037-0.049,0.073-0.074,0.111c-0.021,0.031-0.042,0.063-0.062,0.095
		c-0.1,0.157-0.194,0.492-0.283,0.657c-0.055,0.115-0.92,2.437-0.924,2.47c-0.133,0.936-0.09,2.372-0.085,2.526
		c0.009,0.071,0.017,0.141,0.027,0.212c0.006,0.052,0.014,0.101,0.022,0.151c0.023,0.152,0.05,0.301,0.083,0.45
		c0.021,0.098,0.045,0.197,0.069,0.295c0.012,0.049,0.025,0.097,0.038,0.146c0.009,0.035,0.019,0.068,0.029,0.102
		c0.008,0.03,0.017,0.06,0.026,0.089c0.01,0.034,0.02,0.065,0.03,0.099c0.043,0.136,0.089,0.271,0.14,0.405
		c0.02,0.054,0.042,0.108,0.063,0.162c0.019,0.046,0.248,0.595,0.306,0.726c0.013,0.028,0.026,0.056,0.039,0.083
		c0.002,0.005,0.005,0.012,0.008,0.018c0.131,0.27,1.554,2.495,1.554,2.495c0.136,0.126,0.7,1.259,0.7,1.747
		c0,1.115-0.585,2.05-1.617,2.315c-0.145,0.087-0.058,0.597-0.058,0.697c0,0.187,0.074,0.522,0.097,0.699
		c0.14,0.602,0.302,0.655,1.05,1.655h27.57c0.193,1,0.631,1.201,1.226,1.713c0,0,3.269,2.065,4.541,2.765
		c0.423,0.234,0.815,0.077,0.815,0.077c1.848-0.483,3.262-2.212,3.262-4.199v-0.087L275.857,201.422z"/>
	<path d="M463.116,298.5c0,2.209-1.791,4-4,4H53.642c-2.209,0-4-1.791-4-4l0,0c0-2.209,1.791-4,4-4h405.475
		C461.325,294.5,463.116,296.291,463.116,298.5L463.116,298.5z"/>
	<path d="M463.116,347.167c0,2.209-1.791,4-4,4H53.642c-2.209,0-4-1.791-4-4l0,0c0-2.209,1.791-4,4-4h405.475
		C461.325,343.167,463.116,344.958,463.116,347.167L463.116,347.167z"/>
	<g>
		<path d="M235.848,197.442c-1.482-2.318-1.615-2.594-1.688-2.743c-0.015-0.031-0.084-0.182-0.084-0.182
			c-0.071-0.16-0.333-0.787-0.354-0.84l-0.096-0.25c-0.057-0.15-0.122-0.337-0.181-0.525l-0.03-0.099
			c-0.011-0.033-0.096-0.332-0.096-0.332s-0.089-0.356-0.126-0.516H53.642c-2.209,0-4,1.791-4,4s1.791,4,4,4h180.801
			C234.549,198.612,235.213,197.856,235.848,197.442z"/>
		<path d="M459.116,191.957H276.18c1.188,2.577,2.029,5.256,2.478,8h180.46c2.209,0,4-1.791,4-4S461.325,191.957,459.116,191.957z"
			/>
	</g>
	<path d="M68.157,332.41c-0.22,0-0.43-0.041-0.63-0.127c-0.2-0.084-0.373-0.197-0.518-0.338c-0.145-0.139-0.26-0.309-0.345-0.51
		c-0.085-0.199-0.128-0.41-0.128-0.631v-15.988c0-0.23,0.043-0.443,0.128-0.639c0.085-0.197,0.2-0.365,0.345-0.51
		c0.145-0.146,0.317-0.258,0.518-0.338c0.201-0.08,0.41-0.119,0.63-0.119h6.885c0.74,0,1.433,0.141,2.078,0.42
		s1.207,0.66,1.688,1.141c0.479,0.479,0.857,1.041,1.132,1.688c0.275,0.645,0.413,1.336,0.413,2.076c0,0.691-0.123,1.35-0.367,1.98
		c-0.245,0.631-0.583,1.199-1.013,1.711c0.64,0.549,1.147,1.211,1.522,1.986c0.375,0.773,0.563,1.611,0.563,2.514
		c0,0.799-0.152,1.545-0.458,2.234c-0.305,0.688-0.72,1.289-1.245,1.799c-0.524,0.512-1.14,0.914-1.845,1.209
		c-0.705,0.295-1.462,0.441-2.272,0.441H68.157L68.157,332.41z M69.792,316.465v4.381h5.131c0.3-0.01,0.582-0.078,0.847-0.203
		c0.266-0.125,0.495-0.287,0.69-0.484c0.195-0.201,0.348-0.436,0.457-0.697c0.11-0.268,0.165-0.539,0.165-0.818
		c0-0.301-0.06-0.58-0.18-0.84c-0.12-0.26-0.282-0.49-0.487-0.689c-0.205-0.201-0.442-0.357-0.713-0.473
		c-0.27-0.115-0.555-0.174-0.854-0.174h-5.056V316.465z M69.792,324.102v5.057h5.325c0.37,0,0.718-0.072,1.043-0.221
		c0.324-0.145,0.609-0.342,0.854-0.592c0.245-0.25,0.438-0.535,0.578-0.854c0.14-0.32,0.21-0.654,0.21-1.006
		c0-0.359-0.073-0.688-0.218-0.98c-0.146-0.295-0.34-0.545-0.585-0.75s-0.53-0.365-0.855-0.48c-0.324-0.115-0.667-0.172-1.027-0.172
		h-5.325V324.102z"/>
	<path d="M113.167,328.736h-8.579l-1.125,2.699c-0.141,0.32-0.343,0.563-0.607,0.729c-0.266,0.164-0.558,0.246-0.878,0.246
		c-0.22,0-0.455-0.049-0.705-0.15c-0.22-0.09-0.399-0.211-0.54-0.367c-0.14-0.152-0.242-0.326-0.308-0.518
		c-0.064-0.189-0.09-0.395-0.074-0.615c0.015-0.219,0.067-0.434,0.157-0.645l6.854-15.914c0.141-0.32,0.34-0.564,0.6-0.736
		c0.26-0.17,0.561-0.254,0.9-0.254c0.32,0,0.609,0.084,0.871,0.254c0.26,0.172,0.459,0.41,0.6,0.721l6.9,15.932
		c0.18,0.42,0.207,0.836,0.082,1.244c-0.125,0.41-0.398,0.711-0.818,0.898c-0.209,0.102-0.439,0.15-0.689,0.15
		c-0.32,0-0.615-0.084-0.885-0.254s-0.475-0.41-0.615-0.721L113.167,328.736z M105.894,325.48h5.925l-2.939-7.064L105.894,325.48z"
		/>
	<path d="M136.789,314.846c0-0.229,0.042-0.445,0.127-0.645c0.085-0.201,0.2-0.373,0.345-0.518c0.146-0.145,0.317-0.26,0.518-0.346
		c0.2-0.084,0.41-0.127,0.63-0.127h5.506c0.989,0,1.92,0.178,2.79,0.531c0.869,0.354,1.632,0.846,2.287,1.471
		c0.654,0.625,1.17,1.365,1.545,2.221s0.563,1.777,0.563,2.768c0,0.67-0.09,1.313-0.27,1.928c-0.181,0.613-0.436,1.18-0.766,1.693
		c-0.33,0.516-0.723,0.98-1.178,1.396c-0.455,0.414-0.962,0.768-1.522,1.057l2.775,3.346c0.17,0.16,0.295,0.342,0.375,0.547
		c0.08,0.205,0.117,0.412,0.112,0.623c-0.005,0.209-0.048,0.414-0.127,0.615c-0.08,0.199-0.2,0.375-0.36,0.523
		c-0.16,0.16-0.333,0.279-0.518,0.354c-0.186,0.074-0.373,0.113-0.563,0.113c-0.41,0-0.771-0.156-1.08-0.467l-4.17-4.844h-3.765
		v3.719c0,0.221-0.043,0.432-0.128,0.631c-0.085,0.201-0.202,0.371-0.353,0.51c-0.149,0.141-0.322,0.254-0.518,0.338
		c-0.194,0.086-0.407,0.127-0.638,0.127c-0.22,0-0.43-0.041-0.63-0.127c-0.2-0.084-0.372-0.197-0.518-0.338
		c-0.145-0.139-0.26-0.309-0.345-0.51c-0.085-0.199-0.127-0.41-0.127-0.631v-15.959H136.789z M140.043,316.465v7.352h3.899
		c0.54,0,1.048-0.096,1.522-0.283c0.476-0.191,0.888-0.447,1.238-0.773c0.35-0.324,0.627-0.707,0.832-1.146
		c0.205-0.441,0.308-0.91,0.308-1.41c0-0.51-0.103-0.992-0.308-1.447s-0.482-0.854-0.832-1.193c-0.351-0.34-0.763-0.605-1.238-0.803
		c-0.475-0.195-0.978-0.293-1.507-0.293h-3.914V316.465z"/>
	<path d="M183.314,328.736h-8.58l-1.125,2.699c-0.14,0.32-0.343,0.563-0.607,0.729c-0.265,0.164-0.558,0.246-0.878,0.246
		c-0.22,0-0.455-0.049-0.704-0.15c-0.221-0.09-0.4-0.211-0.54-0.367c-0.141-0.152-0.243-0.326-0.308-0.518
		c-0.065-0.189-0.09-0.395-0.075-0.615c0.015-0.219,0.067-0.434,0.157-0.645l6.855-15.914c0.14-0.32,0.34-0.564,0.6-0.736
		c0.26-0.17,0.56-0.254,0.9-0.254c0.319,0,0.609,0.084,0.87,0.254c0.26,0.172,0.459,0.41,0.6,0.721l6.9,15.932
		c0.18,0.42,0.207,0.836,0.082,1.244c-0.125,0.41-0.397,0.711-0.817,0.898c-0.21,0.102-0.44,0.15-0.69,0.15
		c-0.319,0-0.614-0.084-0.885-0.254c-0.27-0.17-0.475-0.41-0.615-0.721L183.314,328.736z M176.039,325.48h5.926l-2.94-7.064
		L176.039,325.48z"/>
	<path d="M209.567,322.691l9.495-9.031c0.159-0.15,0.335-0.262,0.524-0.338c0.19-0.074,0.385-0.111,0.585-0.111
		c0.22,0,0.433,0.045,0.638,0.135s0.393,0.221,0.563,0.391c0.15,0.16,0.26,0.338,0.33,0.531c0.069,0.195,0.098,0.398,0.082,0.607
		c-0.015,0.211-0.067,0.416-0.157,0.615c-0.09,0.201-0.22,0.381-0.39,0.541l-6.84,6.465l6.989,7.125
		c0.17,0.17,0.293,0.357,0.368,0.563c0.074,0.205,0.112,0.412,0.112,0.621c0,0.211-0.043,0.414-0.128,0.609
		c-0.085,0.193-0.207,0.371-0.367,0.531s-0.333,0.277-0.518,0.354c-0.186,0.074-0.378,0.111-0.577,0.111
		c-0.2,0-0.396-0.039-0.585-0.119c-0.19-0.08-0.365-0.205-0.525-0.375l-7.11-7.215l-2.489,2.369v3.734
		c0,0.221-0.043,0.432-0.128,0.631c-0.085,0.201-0.202,0.371-0.353,0.51c-0.149,0.141-0.322,0.254-0.518,0.338
		c-0.194,0.086-0.407,0.127-0.638,0.127c-0.22,0-0.43-0.041-0.63-0.127c-0.2-0.084-0.372-0.197-0.518-0.338
		c-0.145-0.139-0.26-0.309-0.345-0.51c-0.085-0.199-0.127-0.41-0.127-0.631v-15.988c0-0.23,0.042-0.443,0.127-0.639
		c0.085-0.197,0.2-0.361,0.345-0.502c0.146-0.141,0.317-0.252,0.518-0.338c0.2-0.084,0.41-0.127,0.63-0.127
		c0.23,0,0.443,0.043,0.638,0.127c0.195,0.086,0.368,0.197,0.518,0.338s0.268,0.307,0.353,0.502s0.128,0.408,0.128,0.639V322.691z"
		/>
	<path d="M266.706,313.076c1.351,0,2.619,0.254,3.812,0.764c1.188,0.512,2.227,1.209,3.11,2.094c0.888,0.885,1.584,1.92,2.095,3.105
		c0.51,1.184,0.764,2.451,0.764,3.801c0,0.9-0.117,1.766-0.353,2.596s-0.563,1.605-0.981,2.324c-0.42,0.721-0.93,1.379-1.529,1.973
		c-0.602,0.598-1.262,1.105-1.98,1.531c-0.721,0.424-1.498,0.752-2.332,0.982c-0.836,0.229-1.703,0.344-2.604,0.344
		c-1.35,0-2.617-0.254-3.803-0.764c-1.187-0.51-2.215-1.209-3.09-2.094s-1.564-1.916-2.07-3.098
		c-0.504-1.18-0.758-2.443-0.758-3.795c0-0.898,0.115-1.764,0.346-2.594s0.555-1.607,0.975-2.332c0.42-0.729,0.926-1.389,1.517-1.98
		c0.59-0.596,1.243-1.104,1.965-1.523c0.721-0.418,1.494-0.746,2.323-0.982C264.939,313.193,265.807,313.076,266.706,313.076z
		 M266.723,316.33c-0.9,0-1.742,0.17-2.527,0.51c-0.785,0.342-1.471,0.807-2.055,1.396c-0.586,0.59-1.05,1.279-1.39,2.068
		c-0.34,0.791-0.51,1.637-0.51,2.535c0,0.91,0.17,1.762,0.51,2.551c0.34,0.791,0.804,1.477,1.39,2.063
		c0.584,0.586,1.27,1.045,2.055,1.381c0.785,0.334,1.627,0.502,2.527,0.502c0.899,0,1.745-0.168,2.543-0.502
		c0.795-0.336,1.483-0.795,2.067-1.381c0.586-0.586,1.049-1.271,1.39-2.063c0.34-0.789,0.51-1.641,0.51-2.551
		c0-0.898-0.17-1.744-0.51-2.535c-0.341-0.789-0.804-1.479-1.39-2.068c-0.584-0.59-1.272-1.055-2.067-1.396
		C268.468,316.5,267.622,316.33,266.723,316.33z"/>
	<path d="M296.044,319.195v11.609c0,0.221-0.043,0.432-0.128,0.631c-0.085,0.201-0.202,0.371-0.353,0.51
		c-0.149,0.141-0.322,0.254-0.519,0.338c-0.194,0.086-0.407,0.127-0.638,0.127c-0.221,0-0.43-0.041-0.631-0.127
		c-0.199-0.084-0.371-0.197-0.518-0.338c-0.145-0.139-0.26-0.309-0.345-0.51c-0.085-0.199-0.127-0.41-0.127-0.631v-15.943
		c0-0.43,0.14-0.795,0.42-1.096c0.13-0.17,0.295-0.305,0.495-0.404c0.199-0.1,0.435-0.15,0.703-0.15c0.24,0,0.474,0.053,0.699,0.156
		c0.225,0.105,0.422,0.258,0.592,0.459l10.381,12.465v-11.475c0-0.23,0.045-0.443,0.135-0.639c0.09-0.197,0.21-0.361,0.359-0.502
		s0.324-0.252,0.524-0.338c0.2-0.084,0.415-0.127,0.646-0.127c0.229,0,0.439,0.043,0.631,0.127c0.188,0.086,0.356,0.197,0.502,0.338
		c0.145,0.141,0.258,0.307,0.338,0.502s0.12,0.408,0.12,0.639v15.988c0,0.262-0.056,0.502-0.165,0.721
		c-0.11,0.221-0.261,0.4-0.45,0.541c-0.12,0.109-0.258,0.193-0.413,0.254c-0.153,0.061-0.332,0.09-0.531,0.09h-0.09
		c-0.24-0.01-0.451-0.066-0.631-0.172s-0.351-0.258-0.51-0.457L296.044,319.195z"/>
	<path d="M332.037,329.156l8.324,0.014c0.229,0,0.442,0.043,0.638,0.129c0.195,0.084,0.365,0.201,0.511,0.352s0.26,0.322,0.346,0.52
		c0.085,0.195,0.127,0.408,0.127,0.637c0,0.471-0.155,0.855-0.466,1.156c-0.31,0.299-0.694,0.449-1.154,0.449h-9.96
		c-0.061,0-0.117,0-0.172,0c-0.057,0-0.107-0.012-0.157-0.029c-0.041,0-0.081-0.01-0.12-0.029c-0.341-0.092-0.62-0.275-0.841-0.557
		c-0.221-0.279-0.329-0.609-0.329-0.99v-15.988c0-0.23,0.042-0.443,0.127-0.639c0.085-0.197,0.2-0.361,0.345-0.502
		c0.146-0.141,0.317-0.252,0.519-0.338c0.199-0.084,0.409-0.127,0.63-0.127c0.229,0,0.442,0.043,0.638,0.127
		c0.195,0.086,0.368,0.197,0.518,0.338c0.15,0.141,0.269,0.307,0.354,0.502s0.128,0.408,0.128,0.639v14.338H332.037z"/>
	<path d="M371.334,330.805c0,0.221-0.043,0.432-0.128,0.631c-0.085,0.201-0.202,0.371-0.354,0.51
		c-0.148,0.143-0.321,0.256-0.518,0.34c-0.194,0.086-0.407,0.127-0.638,0.127c-0.221,0-0.431-0.041-0.63-0.127
		c-0.2-0.084-0.372-0.197-0.519-0.34c-0.145-0.139-0.26-0.309-0.345-0.51c-0.085-0.199-0.127-0.41-0.127-0.631v-15.988
		c0-0.229,0.042-0.441,0.127-0.639c0.085-0.195,0.2-0.365,0.345-0.51c0.146-0.145,0.317-0.258,0.519-0.338
		c0.2-0.08,0.409-0.119,0.63-0.119c0.229,0,0.442,0.039,0.638,0.119s0.368,0.193,0.518,0.338c0.15,0.145,0.269,0.314,0.354,0.51
		c0.085,0.197,0.128,0.408,0.128,0.639V330.805z"/>
	<path d="M399.013,319.195v11.609c0,0.221-0.043,0.432-0.128,0.631c-0.085,0.201-0.202,0.371-0.353,0.51
		c-0.149,0.141-0.322,0.254-0.519,0.338c-0.193,0.086-0.406,0.127-0.638,0.127c-0.22,0-0.43-0.041-0.63-0.127
		c-0.2-0.084-0.372-0.197-0.519-0.338c-0.145-0.139-0.26-0.309-0.345-0.51c-0.085-0.199-0.127-0.41-0.127-0.631v-15.943
		c0-0.43,0.14-0.795,0.42-1.096c0.13-0.17,0.295-0.305,0.495-0.404c0.199-0.1,0.435-0.15,0.704-0.15c0.24,0,0.473,0.053,0.698,0.156
		c0.225,0.105,0.422,0.258,0.592,0.459l10.381,12.465v-11.475c0-0.23,0.045-0.443,0.135-0.639c0.09-0.197,0.21-0.361,0.359-0.502
		c0.15-0.141,0.325-0.252,0.525-0.338c0.199-0.084,0.415-0.127,0.645-0.127c0.23,0,0.44,0.043,0.631,0.127
		c0.189,0.086,0.357,0.197,0.502,0.338c0.146,0.141,0.258,0.307,0.338,0.502s0.12,0.408,0.12,0.639v15.988
		c0,0.262-0.056,0.502-0.165,0.721c-0.109,0.221-0.261,0.4-0.45,0.541c-0.119,0.109-0.258,0.193-0.412,0.254s-0.332,0.09-0.532,0.09
		h-0.09c-0.24-0.01-0.45-0.066-0.631-0.172c-0.18-0.105-0.351-0.258-0.51-0.457L399.013,319.195z"/>
	<path d="M432.981,332.41c-0.432-0.039-0.788-0.207-1.073-0.502s-0.427-0.668-0.427-1.117v-15.945c0-0.229,0.042-0.445,0.127-0.645
		c0.085-0.201,0.199-0.373,0.345-0.518s0.316-0.26,0.518-0.346c0.2-0.084,0.415-0.127,0.646-0.127h10.5
		c0.229,0,0.441,0.043,0.638,0.127c0.194,0.086,0.362,0.201,0.502,0.346c0.141,0.145,0.253,0.316,0.338,0.518
		c0.085,0.199,0.127,0.414,0.127,0.645c0,0.221-0.042,0.43-0.127,0.631c-0.085,0.199-0.197,0.371-0.338,0.518
		c-0.14,0.145-0.308,0.262-0.502,0.346c-0.195,0.086-0.408,0.127-0.638,0.127h-8.88v4.471h6.943c0.23,0,0.442,0.043,0.639,0.127
		c0.194,0.086,0.364,0.203,0.51,0.354s0.261,0.324,0.346,0.525c0.085,0.199,0.127,0.414,0.127,0.645
		c0,0.221-0.042,0.428-0.127,0.623c-0.085,0.193-0.2,0.365-0.346,0.51c-0.146,0.146-0.314,0.258-0.51,0.336
		c-0.195,0.082-0.407,0.121-0.639,0.121h-6.943v4.98h8.88c0.229,0,0.441,0.043,0.638,0.127c0.194,0.086,0.362,0.203,0.502,0.352
		c0.141,0.15,0.253,0.326,0.338,0.525c0.085,0.201,0.127,0.416,0.127,0.645c0,0.471-0.151,0.855-0.457,1.156
		c-0.306,0.299-0.688,0.449-1.146,0.449h-10.637V332.41z"/>
	<g>
		<g>
			<path d="M92.206,279.152c-0.734,0-1.434-0.141-2.1-0.424c-0.667-0.283-1.242-0.658-1.725-1.125s-0.867-1.033-1.15-1.701
				c-0.284-0.666-0.425-1.365-0.425-2.1v-53.3c0-0.767,0.142-1.475,0.425-2.125c0.283-0.65,0.667-1.216,1.15-1.7
				c0.483-0.483,1.058-0.858,1.725-1.125c0.667-0.266,1.366-0.4,2.1-0.4h22.95c2.466,0,4.775,0.467,6.925,1.4
				c2.15,0.934,4.025,2.2,5.625,3.8s2.857,3.475,3.775,5.625c0.917,2.15,1.375,4.458,1.375,6.925c0,2.3-0.409,4.5-1.225,6.6
				c-0.817,2.1-1.942,4-3.375,5.7c2.133,1.834,3.825,4.042,5.075,6.625s1.875,5.375,1.875,8.375c0,2.667-0.509,5.15-1.525,7.449
				c-1.017,2.301-2.4,4.301-4.15,6c-1.75,1.701-3.8,3.043-6.15,4.025c-2.35,0.983-4.875,1.475-7.575,1.475H92.206z M97.655,226.004
				v14.6h17.1c1-0.033,1.941-0.258,2.825-0.675c0.883-0.417,1.65-0.958,2.3-1.625s1.158-1.441,1.525-2.325
				c0.367-0.883,0.55-1.792,0.55-2.725c0-1-0.2-1.933-0.6-2.8c-0.4-0.866-0.942-1.633-1.625-2.3
				c-0.684-0.667-1.475-1.191-2.375-1.575c-0.9-0.383-1.85-0.575-2.85-0.575H97.655z M97.655,251.454v16.851h17.75
				c1.233,0,2.392-0.242,3.475-0.727c1.083-0.482,2.033-1.143,2.85-1.975c0.816-0.834,1.458-1.783,1.925-2.852
				c0.466-1.066,0.7-2.184,0.7-3.35c0-1.2-0.242-2.291-0.725-3.274c-0.483-0.981-1.134-1.815-1.95-2.5
				c-0.817-0.683-1.767-1.216-2.85-1.601c-1.084-0.383-2.225-0.574-3.425-0.574L97.655,251.454L97.655,251.454z"/>
			<path d="M191.005,266.902h-28.601l-3.75,9c-0.467,1.068-1.142,1.875-2.025,2.426c-0.884,0.55-1.859,0.824-2.925,0.824
				c-0.733,0-1.517-0.166-2.35-0.5c-0.733-0.299-1.333-0.707-1.8-1.225c-0.467-0.517-0.809-1.092-1.025-1.726
				c-0.217-0.634-0.3-1.316-0.25-2.05c0.05-0.732,0.225-1.45,0.525-2.15l22.85-53.049c0.467-1.066,1.133-1.883,2-2.45
				c0.867-0.566,1.867-0.85,3-0.85c1.066,0,2.033,0.284,2.9,0.85c0.866,0.567,1.533,1.367,2,2.4l23,53.099
				c0.6,1.4,0.691,2.784,0.275,4.15c-0.418,1.367-1.325,2.367-2.726,3c-0.7,0.334-1.467,0.5-2.3,0.5c-1.067,0-2.05-0.283-2.95-0.851
				c-0.899-0.565-1.583-1.366-2.05-2.399L191.005,266.902z M166.755,256.055h19.75l-9.8-23.551L166.755,256.055z"/>
			<path d="M221.555,220.604c0-0.767,0.142-1.483,0.425-2.15c0.283-0.666,0.667-1.241,1.15-1.725
				c0.482-0.483,1.058-0.867,1.725-1.15c0.667-0.283,1.367-0.425,2.101-0.425h18.35c3.3,0,6.4,0.592,9.299,1.775
				c2.9,1.184,5.441,2.817,7.625,4.9c2.185,2.084,3.9,4.55,5.15,7.4s1.875,5.925,1.875,9.225c0,2.234-0.3,4.375-0.9,6.425
				c-0.6,2.05-1.448,3.934-2.549,5.65s-2.408,3.267-3.926,4.65c-1.518,1.383-3.209,2.559-5.074,3.523l9.25,11.15
				c0.565,0.532,0.982,1.142,1.25,1.824c0.267,0.684,0.392,1.375,0.375,2.074c-0.018,0.7-0.158,1.384-0.426,2.051
				s-0.667,1.25-1.199,1.75c-0.533,0.533-1.108,0.926-1.726,1.176s-1.242,0.375-1.875,0.375c-1.367,0-2.567-0.518-3.601-1.551
				l-13.899-16.15h-12.55v12.4c0,0.733-0.143,1.434-0.426,2.1c-0.283,0.668-0.675,1.233-1.175,1.701
				c-0.5,0.467-1.075,0.842-1.725,1.125c-0.65,0.282-1.358,0.424-2.125,0.424c-0.733,0-1.434-0.142-2.101-0.424
				c-0.667-0.283-1.242-0.658-1.725-1.125c-0.483-0.468-0.867-1.033-1.15-1.701c-0.283-0.666-0.425-1.365-0.425-2.1L221.555,220.604
				L221.555,220.604z M232.405,226.004v24.5h13c1.8,0,3.491-0.316,5.074-0.949c1.583-0.634,2.958-1.492,4.125-2.576
				c1.168-1.083,2.092-2.358,2.775-3.825c0.684-1.466,1.025-3.033,1.025-4.7c0-1.7-0.344-3.308-1.025-4.825
				c-0.684-1.517-1.607-2.841-2.775-3.975c-1.166-1.133-2.541-2.025-4.125-2.675c-1.583-0.65-3.258-0.975-5.024-0.975H232.405z"/>
			<path d="M317.854,214.704c4.5,0,8.732,0.85,12.699,2.55c3.967,1.7,7.426,4.025,10.375,6.975c2.95,2.95,5.275,6.4,6.977,10.35
				c1.7,3.95,2.55,8.175,2.55,12.675c0,3-0.394,5.883-1.175,8.65c-0.784,2.767-1.875,5.349-3.275,7.748
				c-1.398,2.4-3.1,4.593-5.1,6.576c-2,1.982-4.2,3.684-6.602,5.1c-2.398,1.417-4.992,2.509-7.773,3.275
				c-2.784,0.767-5.675,1.148-8.675,1.148c-4.5,0-8.727-0.85-12.677-2.55c-3.949-1.7-7.383-4.024-10.3-6.976
				s-5.217-6.392-6.899-10.324c-1.684-3.934-2.524-8.149-2.524-12.649c0-3,0.383-5.883,1.149-8.65s1.851-5.358,3.25-7.775
				c1.399-2.416,3.082-4.616,5.051-6.6c1.966-1.983,4.148-3.675,6.55-5.075c2.401-1.4,4.981-2.491,7.75-3.275
				C311.97,215.096,314.854,214.704,317.854,214.704z M317.903,225.554c-3,0-5.81,0.567-8.425,1.7
				c-2.617,1.133-4.9,2.684-6.852,4.65c-1.95,1.967-3.492,4.267-4.625,6.9c-1.134,2.634-1.7,5.45-1.7,8.45
				c0,3.034,0.566,5.867,1.7,8.5c1.133,2.633,2.675,4.926,4.625,6.874c1.95,1.95,4.233,3.483,6.852,4.601
				c2.615,1.117,5.425,1.676,8.425,1.676s5.825-0.559,8.475-1.676c2.65-1.115,4.95-2.649,6.9-4.601
				c1.95-1.948,3.49-4.241,4.625-6.874c1.133-2.633,1.7-5.466,1.7-8.5c0-3-0.567-5.816-1.7-8.45c-1.135-2.633-2.675-4.933-4.625-6.9
				c-1.95-1.966-4.25-3.517-6.9-4.65C323.729,226.121,320.903,225.554,317.903,225.554z"/>
			<path d="M380.653,235.104v38.701c0,0.732-0.144,1.434-0.427,2.1c-0.282,0.666-0.675,1.232-1.175,1.699
				c-0.5,0.468-1.075,0.843-1.725,1.125c-0.65,0.283-1.358,0.426-2.125,0.426c-0.733,0-1.435-0.143-2.102-0.426
				c-0.667-0.282-1.241-0.657-1.725-1.125c-0.483-0.467-0.867-1.032-1.15-1.699c-0.282-0.666-0.425-1.366-0.425-2.1v-53.151
				c0-1.433,0.467-2.65,1.4-3.65c0.433-0.566,0.981-1.017,1.648-1.35c0.667-0.333,1.45-0.5,2.352-0.5c0.8,0,1.575,0.175,2.325,0.525
				c0.75,0.35,1.406,0.859,1.975,1.525l34.6,41.549v-38.249c0-0.767,0.15-1.475,0.45-2.125c0.301-0.65,0.7-1.208,1.2-1.675
				c0.5-0.466,1.083-0.841,1.75-1.125c0.666-0.283,1.383-0.425,2.15-0.425c0.766,0,1.466,0.142,2.1,0.425
				c0.633,0.284,1.191,0.659,1.675,1.125c0.483,0.467,0.858,1.025,1.125,1.675c0.268,0.65,0.4,1.358,0.4,2.125v53.301
				c0,0.866-0.185,1.666-0.55,2.398c-0.367,0.732-0.867,1.334-1.5,1.8c-0.4,0.367-0.859,0.649-1.375,0.851
				c-0.519,0.201-1.109,0.301-1.775,0.301h-0.3c-0.8-0.033-1.5-0.225-2.102-0.575c-0.6-0.351-1.167-0.856-1.698-1.524
				L380.653,235.104z"/>
		</g>
		<path d="M61.929,274.729c-0.041-0.033-0.078-0.076-0.124-0.094c-1.434-0.508-2.042-1.367-2.042-2.906
			c0-10.429-0.003-20.856,0.008-31.286c0-0.452-0.12-0.725-0.503-1.008c-1.773-1.305-2.789-3.137-3.371-5.215
			c-0.975-3.484-0.8-6.906,0.792-10.186c0.908-1.872,2.222-3.37,4.272-4.067c0.249-0.084,0.501-0.159,0.751-0.238
			c0.502,0,1.002,0,1.504,0c3.26,0.804,4.896,3.185,5.795,6.162c1.163,3.85,0.892,7.619-1.175,11.126
			c-0.531,0.903-1.341,1.663-2.116,2.389c-0.351,0.33-0.504,0.595-0.501,1.064c0.015,5.278,0.009,10.557,0.009,15.835
			c0,5.01,0,10.021,0,15.03c0,1.975-0.431,2.631-2.227,3.394C62.645,274.729,62.287,274.729,61.929,274.729z"/>
		<path d="M446.383,233.495c0.778,0,1.492,0,2.285,0c0-0.224-0.001-0.433,0.001-0.641c0.028-3.84,0.065-7.679,0.08-11.518
			c0.004-0.672,0.246-1.162,0.856-1.426c0.663-0.284,1.354-0.263,1.857,0.269c0.264,0.279,0.435,0.757,0.441,1.148
			c0.059,3.821,0.075,7.643,0.103,11.464c0.001,0.214,0.001,0.427,0.001,0.686c0.763,0,1.487,0,2.285,0c0-0.212,0-0.422,0-0.632
			c0-3.821,0.034-7.644-0.019-11.464c-0.018-1.379,1.327-1.877,2.247-1.519c0.661,0.258,0.949,0.703,0.949,1.526
			c0.001,4.182-0.116,8.369,0.041,12.544c0.11,2.919-0.975,5.208-2.881,7.248c-0.393,0.42-0.787,0.848-1.224,1.222
			c-0.36,0.307-0.488,0.639-0.487,1.113c0.013,9.394,0.011,18.784,0.005,28.176c0,0.376-0.01,0.763-0.097,1.126
			c-0.292,1.226-1.48,2.021-2.782,1.898c-1.192-0.114-2.194-1.165-2.265-2.382c-0.013-0.216-0.007-0.433-0.007-0.649
			c0-9.409-0.003-18.817,0.01-28.229c0-0.437-0.13-0.724-0.451-1.015c-1.313-1.193-2.481-2.513-3.316-4.097
			c-0.528-1.004-0.799-2.063-0.795-3.213c0.021-4.579,0.05-9.157-0.015-13.735c-0.021-1.387,1.33-1.887,2.226-1.539
			c0.648,0.252,0.948,0.672,0.948,1.407c0.005,3.839,0.003,7.679,0.003,11.518C446.383,232.997,446.383,233.211,446.383,233.495z"/>
	</g>
</g>
</svg>
